HD DESI ROCKERS RELEASES



INFO:

Title..................: The Fast and The Furious 2001 
Genre..................: Action | Adventure | Racing
Directer...............: Rob Cohen
Run time...............: 1h 42mn 28sec
size ..................: 887 MB
Languages..............: English.Hindi

___________________________________________________________________________

Video

Format                           : MKV
Duration                         : 1h 42mn
Display aspect ratio             : 16:9
Resolution                       : 672*272
Stream size                      : 674 MiB 
_______________________________________________________________________________


Audio #1 :English
ID                               : 1
Format                           : AC-3
Duration                         : 1h 42mn
Bit rate mode                    : Constant
Bit rate                         : 160 Kbps
Channel(s)                       : 6 channels
Channel positions                : Front: L C R, Side: L R, LFE
Sampling rate                    : 48.0 KHz
Stream size                      : 117 MiB 

____________________________________________________________________________


Audio #2 :Hindi
ID                               : 2
Format                           : MPEG 1 Layer 3 
Duration                         : 1h 42mn
Bit rate mode                    : Constant
Bit rate                         : 128 Kbps
Channel(s)                       : 2 channels
Channel positions                : Front: L R
Sampling rate                    : 44100 Hz
Stream size                      : 93.8 MiB
__________________________________________________________________________



Seeding at 2:00 AM ISt - 8:00 AM ISt
Please wait during seeding
Plz seed after download
Thankyou...

 
http://img64.imageshack.us/img64/7972/16175637.jpg 
http://img709.imageshack.us/img709/9153/82349207.jpg 
http://img11.imageshack.us/img11/3228/71133627.jpg 
http://img685.imageshack.us/img685/4295/59336789.jpg 
http://img101.imageshack.us/img101/7739/72683183.jpg 
http://img140.imageshack.us/img140/9348/39494961.jpg 
http://img682.imageshack.us/img682/4558/93296622.jpg
